# xmcd CD database file
#
# Track frame offsets:
#	150
#	10606
#	25641
#	39361
#	59438
#	74514
#	85959
#	107492
#	118571
#	130586
#	152630
#	170865
#	189063
#	208304
#	220458
#	231859
#	245184
#	258408
#	276386
#	288361
#	302939
#	333001
#
# Disc length: 4795 seconds
#
# Revision: 1
# Processed by: cddbd v1.5.1PL2 Copyright (c) Steve Scherf et al.
# Submitted via: CDex 1.51
#
DISCID=3f12b916
DTITLE=Supergrass - Supergrass is 10
DYEAR=2004
DGENRE=Rock
TTITLE0=Caught By The Fuzz
TTITLE1=Pumping On Your Stereo
TTITLE2=Alright
TTITLE3=Moving
TTITLE4=Richard III
TTITLE5=Grace
TTITLE6=Late In The Day
TTITLE7=Seen The Light
TTITLE8=Mansize Rooster
TTITLE9=Sun Hits The Sky
TTITLE10=Kiss Of Life
TTITLE11=Mary
TTITLE12=Going Out
TTITLE13=Lenny
TTITLE14=Bullet
TTITLE15=It's Not Me
TTITLE16=Rush Hour Soul
TTITLE17=Strange Ones
TTITLE18=Lose It
TTITLE19=Time
TTITLE20=Wait For The Sun
TTITLE21=DATA
EXTD=YEAR: 2004
EXTT0=
EXTT1=
EXTT2=
EXTT3=
EXTT4=
EXTT5=
EXTT6=
EXTT7=
EXTT8=
EXTT9=
EXTT10=
EXTT11=
EXTT12=
EXTT13=
EXTT14=
EXTT15=
EXTT16=
EXTT17=
EXTT18=
EXTT19=
EXTT20=
EXTT21=
PLAYORDER=
